<mxfile host="app.diagrams.net" modified="2023-07-20T02:50:58.608Z" agent="Mozilla/5.0 (Windows NT 10.0; Win64; x64) AppleWebKit/537.36 (KHTML, like Gecko) Chrome/114.0.0.0 Safari/537.36" etag="iFSU4qD7JQgFNbpigVaL" version="21.6.3" type="github" pages="2">
  <diagram name="第 1 页" id="rNnZSmpVsnvhEYnPXjJP">
    <mxGraphModel dx="1434" dy="755" grid="0" gridSize="10" guides="1" tooltips="1" connect="1" arrows="1" fold="1" page="1" pageScale="1" pageWidth="827" pageHeight="1169" background="#ffffff" math="0" shadow="0">
      <root>
        <mxCell id="0" />
        <mxCell id="1" parent="0" />
        <mxCell id="xnREdT0JmF6SlJ20tpJP-6" value="&lt;font style=&quot;font-size: 13px;&quot;&gt;对文档进行分词&lt;/font&gt;" style="rounded=1;whiteSpace=wrap;html=1;absoluteArcSize=1;arcSize=14;strokeWidth=2;fillColor=#60a917;fontColor=#ffffff;strokeColor=#2D7600;" parent="1" vertex="1">
          <mxGeometry x="162.5" y="190" width="137.5" height="50" as="geometry" />
        </mxCell>
        <mxCell id="xnREdT0JmF6SlJ20tpJP-8" value="&lt;font style=&quot;font-size: 13px;&quot;&gt;加载停用词&lt;/font&gt;" style="rounded=1;whiteSpace=wrap;html=1;absoluteArcSize=1;arcSize=14;strokeWidth=2;fillColor=#60a917;fontColor=#ffffff;strokeColor=#2D7600;" parent="1" vertex="1">
          <mxGeometry x="380" y="190" width="140" height="50" as="geometry" />
        </mxCell>
        <mxCell id="xnREdT0JmF6SlJ20tpJP-11" value="&lt;font style=&quot;font-size: 13px;&quot;&gt;计算单词权重&lt;/font&gt;" style="rounded=1;whiteSpace=wrap;html=1;absoluteArcSize=1;arcSize=14;strokeWidth=2;fillColor=#60a917;fontColor=#ffffff;strokeColor=#2D7600;" parent="1" vertex="1">
          <mxGeometry x="162.5" y="310" width="140" height="50" as="geometry" />
        </mxCell>
        <mxCell id="xnREdT0JmF6SlJ20tpJP-26" value="&lt;font style=&quot;font-size: 13px;&quot;&gt;调用朴素贝叶斯分类器&lt;/font&gt;" style="rounded=1;whiteSpace=wrap;html=1;absoluteArcSize=1;arcSize=14;strokeWidth=2;fillColor=#60a917;fontColor=#ffffff;strokeColor=#2D7600;" parent="1" vertex="1">
          <mxGeometry x="144" y="595" width="140" height="50" as="geometry" />
        </mxCell>
        <mxCell id="xnREdT0JmF6SlJ20tpJP-28" value="&lt;font style=&quot;font-size: 13px;&quot;&gt;文档输入&lt;/font&gt;" style="rounded=1;whiteSpace=wrap;html=1;absoluteArcSize=1;arcSize=14;strokeWidth=2;fillColor=#60a917;fontColor=#ffffff;strokeColor=#2D7600;" parent="1" vertex="1">
          <mxGeometry x="284" y="40" width="130" height="40" as="geometry" />
        </mxCell>
        <mxCell id="xnREdT0JmF6SlJ20tpJP-29" value="&lt;div style=&quot;font-size: 13px;&quot;&gt;&lt;font style=&quot;font-size: 13px;&quot;&gt;输出训练/测试&lt;/font&gt;&lt;/div&gt;&lt;div style=&quot;font-size: 13px;&quot;&gt;&lt;font style=&quot;font-size: 13px;&quot;&gt;特征向量&lt;span style=&quot;background-color: initial;&quot;&gt;和标签&lt;/span&gt;&lt;/font&gt;&lt;/div&gt;" style="rounded=1;whiteSpace=wrap;html=1;absoluteArcSize=1;arcSize=14;strokeWidth=2;fillColor=#60a917;fontColor=#ffffff;strokeColor=#2D7600;" parent="1" vertex="1">
          <mxGeometry x="390" y="310" width="140" height="50" as="geometry" />
        </mxCell>
        <mxCell id="xnREdT0JmF6SlJ20tpJP-33" value="&lt;font style=&quot;font-size: 13px;&quot;&gt;训练特征向量+标签输入&lt;/font&gt;" style="rounded=1;whiteSpace=wrap;html=1;absoluteArcSize=1;arcSize=14;strokeWidth=2;fillColor=#60a917;fontColor=#ffffff;strokeColor=#2D7600;" parent="1" vertex="1">
          <mxGeometry x="270" y="440" width="150" height="50" as="geometry" />
        </mxCell>
        <mxCell id="xnREdT0JmF6SlJ20tpJP-34" value="&lt;font style=&quot;font-size: 13px;&quot;&gt;输出文本分类器&lt;/font&gt;" style="rounded=1;whiteSpace=wrap;html=1;absoluteArcSize=1;arcSize=14;strokeWidth=2;fillColor=#60a917;fontColor=#ffffff;strokeColor=#2D7600;" parent="1" vertex="1">
          <mxGeometry x="400" y="595" width="140" height="50" as="geometry" />
        </mxCell>
        <mxCell id="xnREdT0JmF6SlJ20tpJP-37" value="&lt;font style=&quot;font-size: 13px;&quot;&gt;输入测试特征向量&lt;/font&gt;" style="rounded=1;whiteSpace=wrap;html=1;absoluteArcSize=1;arcSize=14;strokeWidth=2;fillColor=#60a917;fontColor=#ffffff;strokeColor=#2D7600;" parent="1" vertex="1">
          <mxGeometry x="250" y="730" width="155" height="60" as="geometry" />
        </mxCell>
        <mxCell id="xnREdT0JmF6SlJ20tpJP-39" value="&lt;font style=&quot;font-size: 13px;&quot;&gt;调用已训练的文本分类器&lt;/font&gt;" style="rounded=1;whiteSpace=wrap;html=1;absoluteArcSize=1;arcSize=14;strokeWidth=2;fillColor=#60a917;fontColor=#ffffff;strokeColor=#2D7600;" parent="1" vertex="1">
          <mxGeometry x="110" y="900" width="160" height="60" as="geometry" />
        </mxCell>
        <mxCell id="xnREdT0JmF6SlJ20tpJP-41" value="&lt;font style=&quot;font-size: 13px;&quot;&gt;输出准确率&lt;/font&gt;" style="rounded=1;whiteSpace=wrap;html=1;absoluteArcSize=1;arcSize=14;strokeWidth=2;fillColor=#60a917;fontColor=#ffffff;strokeColor=#2D7600;" parent="1" vertex="1">
          <mxGeometry x="372.5" y="1020" width="143.75" height="62.5" as="geometry" />
        </mxCell>
        <mxCell id="xnREdT0JmF6SlJ20tpJP-42" value="&lt;font style=&quot;font-size: 13px;&quot;&gt;比较测试标签&lt;/font&gt;" style="rounded=1;whiteSpace=wrap;html=1;absoluteArcSize=1;arcSize=14;strokeWidth=2;fillColor=#60a917;fontColor=#ffffff;strokeColor=#2D7600;" parent="1" vertex="1">
          <mxGeometry x="110" y="1020" width="152.5" height="60" as="geometry" />
        </mxCell>
        <object label="&lt;font style=&quot;font-size: 16px&quot;&gt;&lt;b&gt;&lt;div style=&quot;text-align: left&quot;&gt;%c4Name%&lt;/div&gt;&lt;/b&gt;&lt;/font&gt;&lt;div style=&quot;text-align: left&quot;&gt;[%c4Application%]&lt;/div&gt;" id="ZH1zA2z7L5tHXlDWWCeK-1">
          <mxCell style="rounded=1;fontSize=11;whiteSpace=wrap;html=1;dashed=1;arcSize=20;fillColor=none;strokeColor=#666666;fontColor=#333333;labelBackgroundColor=none;align=left;verticalAlign=bottom;labelBorderColor=none;spacingTop=0;spacing=10;dashPattern=8 4;metaEdit=1;rotatable=0;perimeter=rectanglePerimeter;noLabel=0;labelPadding=0;allowArrows=0;connectable=0;expand=0;recursiveResize=0;editable=1;pointerEvents=0;absoluteArcSize=1;points=[[0.25,0,0],[0.5,0,0],[0.75,0,0],[1,0.25,0],[1,0.5,0],[1,0.75,0],[0.75,1,0],[0.5,1,0],[0.25,1,0],[0,0.75,0],[0,0.5,0],[0,0.25,0]];" vertex="1" parent="1">
            <mxGeometry x="100" y="140" width="500" height="270" as="geometry" />
          </mxCell>
        </object>
        <mxCell id="ZH1zA2z7L5tHXlDWWCeK-2" value="" style="shape=singleArrow;whiteSpace=wrap;html=1;fillColor=#1ba1e2;fontColor=#ffffff;strokeColor=#006EAF;" vertex="1" parent="1">
          <mxGeometry x="310" y="200" width="60" height="30" as="geometry" />
        </mxCell>
        <mxCell id="ZH1zA2z7L5tHXlDWWCeK-4" value="" style="shape=singleArrow;whiteSpace=wrap;html=1;fillColor=#1ba1e2;fontColor=#ffffff;strokeColor=#006EAF;" vertex="1" parent="1">
          <mxGeometry x="310" y="320" width="60" height="30" as="geometry" />
        </mxCell>
        <mxCell id="ZH1zA2z7L5tHXlDWWCeK-5" value="" style="shape=singleArrow;direction=south;whiteSpace=wrap;html=1;fillColor=#1ba1e2;fontColor=#ffffff;strokeColor=#006EAF;" vertex="1" parent="1">
          <mxGeometry x="333.5" y="90" width="31" height="40" as="geometry" />
        </mxCell>
        <mxCell id="ZH1zA2z7L5tHXlDWWCeK-8" value="" style="html=1;shadow=0;dashed=0;align=center;verticalAlign=middle;shape=mxgraph.arrows2.stripedArrow;dy=0.6;dx=40;notch=25;fillColor=#1ba1e2;fontColor=#ffffff;strokeColor=#006EAF;" vertex="1" parent="1">
          <mxGeometry x="612.5" y="270" width="97.5" height="30" as="geometry" />
        </mxCell>
        <mxCell id="ZH1zA2z7L5tHXlDWWCeK-10" value="&lt;font style=&quot;font-size: 21px;&quot;&gt;准&lt;br&gt;备&lt;br&gt;阶&lt;br&gt;段&lt;/font&gt;" style="text;html=1;align=center;verticalAlign=middle;resizable=0;points=[];autosize=1;strokeColor=none;fillColor=none;" vertex="1" parent="1">
          <mxGeometry x="720" y="230" width="40" height="110" as="geometry" />
        </mxCell>
        <mxCell id="ZH1zA2z7L5tHXlDWWCeK-12" value="" style="shape=singleArrow;whiteSpace=wrap;html=1;fillColor=#1ba1e2;fontColor=#ffffff;strokeColor=#006EAF;" vertex="1" parent="1">
          <mxGeometry x="304.5" y="605" width="60" height="30" as="geometry" />
        </mxCell>
        <mxCell id="ZH1zA2z7L5tHXlDWWCeK-14" value="" style="shape=singleArrow;direction=south;whiteSpace=wrap;html=1;fillColor=#1ba1e2;fontColor=#ffffff;strokeColor=#006EAF;" vertex="1" parent="1">
          <mxGeometry x="324.5" y="500" width="31" height="40" as="geometry" />
        </mxCell>
        <object placeholders="1" c4Name="System name" c4Type="SystemScopeBoundary" c4Application="Software System" label="&lt;font style=&quot;font-size: 16px&quot;&gt;&lt;b&gt;&lt;div style=&quot;text-align: left&quot;&gt;%c4Name%&lt;/div&gt;&lt;/b&gt;&lt;/font&gt;&lt;div style=&quot;text-align: left&quot;&gt;[%c4Application%]&lt;/div&gt;" id="ZH1zA2z7L5tHXlDWWCeK-16">
          <mxCell style="rounded=1;fontSize=11;whiteSpace=wrap;html=1;dashed=1;arcSize=20;fillColor=none;strokeColor=#666666;fontColor=#333333;labelBackgroundColor=none;align=left;verticalAlign=bottom;labelBorderColor=none;spacingTop=0;spacing=10;dashPattern=8 4;metaEdit=1;rotatable=0;perimeter=rectanglePerimeter;noLabel=0;labelPadding=0;allowArrows=0;connectable=0;expand=0;recursiveResize=0;editable=1;pointerEvents=0;absoluteArcSize=1;points=[[0.25,0,0],[0.5,0,0],[0.75,0,0],[1,0.25,0],[1,0.5,0],[1,0.75,0],[0.75,1,0],[0.5,1,0],[0.25,1,0],[0,0.75,0],[0,0.5,0],[0,0.25,0]];" vertex="1" parent="1">
            <mxGeometry x="110" y="550" width="460" height="140" as="geometry" />
          </mxCell>
        </object>
        <mxCell id="ZH1zA2z7L5tHXlDWWCeK-22" value="" style="html=1;shadow=0;dashed=0;align=center;verticalAlign=middle;shape=mxgraph.arrows2.stripedArrow;dy=0.6;dx=40;notch=25;fillColor=#1ba1e2;fontColor=#ffffff;strokeColor=#006EAF;" vertex="1" parent="1">
          <mxGeometry x="580" y="605" width="97.5" height="30" as="geometry" />
        </mxCell>
        <mxCell id="ZH1zA2z7L5tHXlDWWCeK-23" value="&lt;font style=&quot;font-size: 21px;&quot;&gt;训&lt;br&gt;练&lt;br&gt;阶&lt;br&gt;段&lt;/font&gt;" style="text;html=1;align=center;verticalAlign=middle;resizable=0;points=[];autosize=1;strokeColor=none;fillColor=none;" vertex="1" parent="1">
          <mxGeometry x="690" y="560" width="40" height="110" as="geometry" />
        </mxCell>
        <mxCell id="ZH1zA2z7L5tHXlDWWCeK-24" value="&lt;font style=&quot;font-size: 13px;&quot;&gt;分类器做预测&lt;/font&gt;" style="rounded=1;whiteSpace=wrap;html=1;absoluteArcSize=1;arcSize=14;strokeWidth=2;fillColor=#60a917;fontColor=#ffffff;strokeColor=#2D7600;" vertex="1" parent="1">
          <mxGeometry x="370" y="900" width="146.25" height="60" as="geometry" />
        </mxCell>
        <object placeholders="1" c4Name="System name" c4Type="SystemScopeBoundary" c4Application="Software System" label="&lt;font style=&quot;font-size: 16px&quot;&gt;&lt;b&gt;&lt;div style=&quot;text-align: left&quot;&gt;%c4Name%&lt;/div&gt;&lt;/b&gt;&lt;/font&gt;&lt;div style=&quot;text-align: left&quot;&gt;[%c4Application%]&lt;/div&gt;" id="ZH1zA2z7L5tHXlDWWCeK-25">
          <mxCell style="rounded=1;fontSize=11;whiteSpace=wrap;html=1;dashed=1;arcSize=20;fillColor=none;strokeColor=#666666;fontColor=#333333;labelBackgroundColor=none;align=left;verticalAlign=bottom;labelBorderColor=none;spacingTop=0;spacing=10;dashPattern=8 4;metaEdit=1;rotatable=0;perimeter=rectanglePerimeter;noLabel=0;labelPadding=0;allowArrows=0;connectable=0;expand=0;recursiveResize=0;editable=1;pointerEvents=0;absoluteArcSize=1;points=[[0.25,0,0],[0.5,0,0],[0.75,0,0],[1,0.25,0],[1,0.5,0],[1,0.75,0],[0.75,1,0],[0.5,1,0],[0.25,1,0],[0,0.75,0],[0,0.5,0],[0,0.25,0]];" vertex="1" parent="1">
            <mxGeometry x="70" y="860" width="510" height="280" as="geometry" />
          </mxCell>
        </object>
        <mxCell id="ZH1zA2z7L5tHXlDWWCeK-26" value="" style="shape=singleArrow;whiteSpace=wrap;html=1;fillColor=#1ba1e2;fontColor=#ffffff;strokeColor=#006EAF;" vertex="1" parent="1">
          <mxGeometry x="295.5" y="920" width="60" height="30" as="geometry" />
        </mxCell>
        <mxCell id="ZH1zA2z7L5tHXlDWWCeK-27" value="" style="shape=singleArrow;whiteSpace=wrap;html=1;fillColor=#1ba1e2;fontColor=#ffffff;strokeColor=#006EAF;" vertex="1" parent="1">
          <mxGeometry x="290" y="1040" width="60" height="30" as="geometry" />
        </mxCell>
        <mxCell id="ZH1zA2z7L5tHXlDWWCeK-28" value="" style="shape=singleArrow;direction=south;whiteSpace=wrap;html=1;fillColor=#1ba1e2;fontColor=#ffffff;strokeColor=#006EAF;" vertex="1" parent="1">
          <mxGeometry x="304.5" y="800" width="35.5" height="50" as="geometry" />
        </mxCell>
        <mxCell id="ZH1zA2z7L5tHXlDWWCeK-29" value="" style="html=1;shadow=0;dashed=0;align=center;verticalAlign=middle;shape=mxgraph.arrows2.stripedArrow;dy=0.6;dx=40;notch=25;fillColor=#1ba1e2;fontColor=#ffffff;strokeColor=#006EAF;" vertex="1" parent="1">
          <mxGeometry x="600" y="985" width="97.5" height="30" as="geometry" />
        </mxCell>
        <mxCell id="ZH1zA2z7L5tHXlDWWCeK-30" value="&lt;font style=&quot;font-size: 21px;&quot;&gt;预&lt;br&gt;测&lt;br&gt;阶&lt;br&gt;段&lt;/font&gt;" style="text;html=1;align=center;verticalAlign=middle;resizable=0;points=[];autosize=1;strokeColor=none;fillColor=none;" vertex="1" parent="1">
          <mxGeometry x="710" y="945" width="40" height="110" as="geometry" />
        </mxCell>
      </root>
    </mxGraphModel>
  </diagram>
  <diagram name="第 2 页" id="SH7b1ZwIWpdN4-WX7afJ">
    <mxGraphModel dx="1434" dy="755" grid="1" gridSize="10" guides="1" tooltips="1" connect="1" arrows="1" fold="1" page="1" pageScale="1" pageWidth="827" pageHeight="1169" math="0" shadow="0">
      <root>
        <mxCell id="xBL0iA5je1IYhvoQXSjc-0" />
        <mxCell id="xBL0iA5je1IYhvoQXSjc-1" parent="xBL0iA5je1IYhvoQXSjc-0" />
        <mxCell id="xBL0iA5je1IYhvoQXSjc-5" value="&lt;font style=&quot;font-size: 13px;&quot;&gt;调用已训练的文本分类器&lt;/font&gt;" style="rounded=1;whiteSpace=wrap;html=1;absoluteArcSize=1;arcSize=14;strokeWidth=2;fillColor=#60a917;fontColor=#ffffff;strokeColor=#2D7600;" vertex="1" parent="xBL0iA5je1IYhvoQXSjc-1">
          <mxGeometry x="130" y="590" width="160" height="50" as="geometry" />
        </mxCell>
        <mxCell id="xBL0iA5je1IYhvoQXSjc-8" value="&lt;font style=&quot;font-size: 13px;&quot;&gt;新数据的特征向量输入&lt;/font&gt;" style="rounded=1;whiteSpace=wrap;html=1;absoluteArcSize=1;arcSize=14;strokeWidth=2;fillColor=#60a917;fontColor=#ffffff;strokeColor=#2D7600;" vertex="1" parent="xBL0iA5je1IYhvoQXSjc-1">
          <mxGeometry x="260" y="430" width="160" height="60" as="geometry" />
        </mxCell>
        <mxCell id="xBL0iA5je1IYhvoQXSjc-9" value="&lt;font style=&quot;font-size: 13px;&quot;&gt;输出分类标签&lt;/font&gt;" style="rounded=1;whiteSpace=wrap;html=1;absoluteArcSize=1;arcSize=14;strokeWidth=2;fillColor=#60a917;fontColor=#ffffff;strokeColor=#2D7600;" vertex="1" parent="xBL0iA5je1IYhvoQXSjc-1">
          <mxGeometry x="400" y="590" width="140" height="50" as="geometry" />
        </mxCell>
        <mxCell id="xBL0iA5je1IYhvoQXSjc-20" value="" style="shape=singleArrow;whiteSpace=wrap;html=1;fillColor=#1ba1e2;fontColor=#ffffff;strokeColor=#006EAF;" vertex="1" parent="xBL0iA5je1IYhvoQXSjc-1">
          <mxGeometry x="304.5" y="605" width="60" height="30" as="geometry" />
        </mxCell>
        <mxCell id="xBL0iA5je1IYhvoQXSjc-21" value="" style="shape=singleArrow;direction=south;whiteSpace=wrap;html=1;fillColor=#1ba1e2;fontColor=#ffffff;strokeColor=#006EAF;" vertex="1" parent="xBL0iA5je1IYhvoQXSjc-1">
          <mxGeometry x="324.5" y="500" width="31" height="40" as="geometry" />
        </mxCell>
        <object placeholders="1" c4Name="System name" c4Type="SystemScopeBoundary" c4Application="Software System" label="&lt;font style=&quot;font-size: 16px&quot;&gt;&lt;b&gt;&lt;div style=&quot;text-align: left&quot;&gt;%c4Name%&lt;/div&gt;&lt;/b&gt;&lt;/font&gt;&lt;div style=&quot;text-align: left&quot;&gt;[%c4Application%]&lt;/div&gt;" id="xBL0iA5je1IYhvoQXSjc-22">
          <mxCell style="rounded=1;fontSize=11;whiteSpace=wrap;html=1;dashed=1;arcSize=20;fillColor=none;strokeColor=#666666;fontColor=#333333;labelBackgroundColor=none;align=left;verticalAlign=bottom;labelBorderColor=none;spacingTop=0;spacing=10;dashPattern=8 4;metaEdit=1;rotatable=0;perimeter=rectanglePerimeter;noLabel=0;labelPadding=0;allowArrows=0;connectable=0;expand=0;recursiveResize=0;editable=1;pointerEvents=0;absoluteArcSize=1;points=[[0.25,0,0],[0.5,0,0],[0.75,0,0],[1,0.25,0],[1,0.5,0],[1,0.75,0],[0.75,1,0],[0.5,1,0],[0.25,1,0],[0,0.75,0],[0,0.5,0],[0,0.25,0]];" vertex="1" parent="xBL0iA5je1IYhvoQXSjc-1">
            <mxGeometry x="110" y="550" width="460" height="140" as="geometry" />
          </mxCell>
        </object>
        <mxCell id="xBL0iA5je1IYhvoQXSjc-23" value="" style="html=1;shadow=0;dashed=0;align=center;verticalAlign=middle;shape=mxgraph.arrows2.stripedArrow;dy=0.6;dx=40;notch=25;fillColor=#1ba1e2;fontColor=#ffffff;strokeColor=#006EAF;" vertex="1" parent="xBL0iA5je1IYhvoQXSjc-1">
          <mxGeometry x="580" y="605" width="97.5" height="30" as="geometry" />
        </mxCell>
        <mxCell id="xBL0iA5je1IYhvoQXSjc-24" value="&lt;font style=&quot;font-size: 21px;&quot;&gt;应&lt;br&gt;用&lt;br&gt;阶&lt;br&gt;段&lt;/font&gt;" style="text;html=1;align=center;verticalAlign=middle;resizable=0;points=[];autosize=1;strokeColor=none;fillColor=none;" vertex="1" parent="xBL0iA5je1IYhvoQXSjc-1">
          <mxGeometry x="690" y="560" width="40" height="110" as="geometry" />
        </mxCell>
      </root>
    </mxGraphModel>
  </diagram>
</mxfile>
